<svg xmlns="http://www.w3.org/2000/svg" viewBox="0 0 226.67 226.67"><defs><style>.cls-1{fill:#edf0f1;}</style></defs><title>Asset 1</title><g id="Layer_2" data-name="Layer 2"><g id="Layer_1-2" data-name="Layer 1"><path class="cls-1" d="M134.63,111.43a2.08,2.08,0,0,1,.65-1.55,2.16,2.16,0,0,1,1.56-.63,2.16,2.16,0,0,1,2.18,2.18v34.38a19.69,19.69,0,0,1-33.61,13.92,19.69,19.69,0,0,1,27.84-27.84l1.37,1.37Zm0,34.38a15.3,15.3,0,1,0-4.46,10.83A14.75,14.75,0,0,0,134.63,145.81Z"/><path class="cls-1" d="M145.51,128.31a2.16,2.16,0,0,1,2.18-2.18,2.16,2.16,0,0,1,1.56.63,2.08,2.08,0,0,1,.65,1.55v37.3a16.8,16.8,0,0,1-16.77,16.77,2.16,2.16,0,0,1-1.56-.63,2.08,2.08,0,0,1-.65-1.55,2.22,2.22,0,0,1,2.21-2.21,12.42,12.42,0,0,0,12.37-12.37Zm5.1-11.67a2.92,2.92,0,0,1-5,2.07,2.92,2.92,0,1,1,4.13-4.13A2.84,2.84,0,0,1,150.61,116.63Z"/><path class="cls-1" d="M160.91,163.32a2.16,2.16,0,0,1-2.18,2.18,2.16,2.16,0,0,1-1.56-.63,2.07,2.07,0,0,1-.65-1.55v-35a2.08,2.08,0,0,1,.65-1.55,2.16,2.16,0,0,1,1.56-.63,2.16,2.16,0,0,1,2.18,2.18v2.36q5.34-4.54,10.93-4.54a14.76,14.76,0,0,1,10.83,4.5,27.38,27.38,0,0,1,2.29,2.74,24.55,24.55,0,0,1,2.32-2.74,15.29,15.29,0,0,1,26.12,10.83v21.87a2.18,2.18,0,1,1-4.36,0V141.45a10.93,10.93,0,1,0-21.87,0v21.87a2.07,2.07,0,0,1-.65,1.55,2.16,2.16,0,0,1-1.56.63,2.16,2.16,0,0,1-2.18-2.18V141.45a10.93,10.93,0,1,0-21.87,0Z"/><path class="cls-1" d="M113.33,0A113.33,113.33,0,1,0,226.67,113.33,113.33,113.33,0,0,0,113.33,0Zm0,221.07A107.73,107.73,0,1,1,221.07,113.33,107.73,107.73,0,0,1,113.34,221.07Z"/></g></g></svg>